<mxfile host="app.diagrams.net" modified="2023-04-26T05:34:51.707Z" agent="Mozilla/5.0 (Windows NT 10.0; Win64; x64) AppleWebKit/537.36 (KHTML, like Gecko) Chrome/112.0.0.0 Safari/537.36" etag="BKs3H6uuzTNxE9Y3Cn7P" version="21.1.7" type="github">
  <diagram name="第 1 页" id="c7Uxv0ZtFkkFXoRyiM4b">
    <mxGraphModel dx="1434" dy="795" grid="1" gridSize="10" guides="1" tooltips="1" connect="1" arrows="1" fold="1" page="1" pageScale="1" pageWidth="2339" pageHeight="3300" math="0" shadow="0">
      <root>
        <mxCell id="0" />
        <mxCell id="1" parent="0" />
        <mxCell id="-Tqdvg291Q0EpoPKD0Hr-5" value="" style="edgeStyle=orthogonalEdgeStyle;rounded=0;orthogonalLoop=1;jettySize=auto;html=1;" edge="1" parent="1" source="-Tqdvg291Q0EpoPKD0Hr-1" target="-Tqdvg291Q0EpoPKD0Hr-4">
          <mxGeometry relative="1" as="geometry" />
        </mxCell>
        <mxCell id="-Tqdvg291Q0EpoPKD0Hr-6" value="" style="edgeStyle=orthogonalEdgeStyle;rounded=0;orthogonalLoop=1;jettySize=auto;html=1;" edge="1" parent="1" source="-Tqdvg291Q0EpoPKD0Hr-1" target="-Tqdvg291Q0EpoPKD0Hr-2">
          <mxGeometry relative="1" as="geometry" />
        </mxCell>
        <mxCell id="-Tqdvg291Q0EpoPKD0Hr-7" value="" style="edgeStyle=orthogonalEdgeStyle;rounded=0;orthogonalLoop=1;jettySize=auto;html=1;" edge="1" parent="1" source="-Tqdvg291Q0EpoPKD0Hr-1" target="-Tqdvg291Q0EpoPKD0Hr-3">
          <mxGeometry relative="1" as="geometry" />
        </mxCell>
        <mxCell id="-Tqdvg291Q0EpoPKD0Hr-1" value="unity" style="whiteSpace=wrap;html=1;aspect=fixed;" vertex="1" parent="1">
          <mxGeometry x="560" y="450" width="80" height="80" as="geometry" />
        </mxCell>
        <mxCell id="-Tqdvg291Q0EpoPKD0Hr-2" value="C#编程" style="rounded=0;whiteSpace=wrap;html=1;" vertex="1" parent="1">
          <mxGeometry x="540" y="290" width="120" height="60" as="geometry" />
        </mxCell>
        <mxCell id="-Tqdvg291Q0EpoPKD0Hr-18" style="edgeStyle=orthogonalEdgeStyle;rounded=0;orthogonalLoop=1;jettySize=auto;html=1;exitX=0.5;exitY=1;exitDx=0;exitDy=0;entryX=0;entryY=0;entryDx=0;entryDy=0;" edge="1" parent="1" source="-Tqdvg291Q0EpoPKD0Hr-3" target="-Tqdvg291Q0EpoPKD0Hr-9">
          <mxGeometry relative="1" as="geometry" />
        </mxCell>
        <mxCell id="-Tqdvg291Q0EpoPKD0Hr-3" value="美术" style="rounded=0;whiteSpace=wrap;html=1;" vertex="1" parent="1">
          <mxGeometry x="540" y="640" width="120" height="60" as="geometry" />
        </mxCell>
        <mxCell id="-Tqdvg291Q0EpoPKD0Hr-4" value="基础功能" style="rounded=0;whiteSpace=wrap;html=1;" vertex="1" parent="1">
          <mxGeometry x="740" y="460" width="120" height="60" as="geometry" />
        </mxCell>
        <mxCell id="-Tqdvg291Q0EpoPKD0Hr-8" value="模型" style="rounded=0;whiteSpace=wrap;html=1;" vertex="1" parent="1">
          <mxGeometry x="480" y="760" width="120" height="60" as="geometry" />
        </mxCell>
        <mxCell id="-Tqdvg291Q0EpoPKD0Hr-9" value="动画" style="rounded=0;whiteSpace=wrap;html=1;" vertex="1" parent="1">
          <mxGeometry x="600" y="760" width="120" height="60" as="geometry" />
        </mxCell>
        <mxCell id="-Tqdvg291Q0EpoPKD0Hr-10" value="图形学" style="rounded=0;whiteSpace=wrap;html=1;" vertex="1" parent="1">
          <mxGeometry x="480" y="820" width="120" height="60" as="geometry" />
        </mxCell>
        <mxCell id="-Tqdvg291Q0EpoPKD0Hr-14" value="API" style="rounded=0;whiteSpace=wrap;html=1;" vertex="1" parent="1">
          <mxGeometry x="420" y="180" width="120" height="60" as="geometry" />
        </mxCell>
        <mxCell id="-Tqdvg291Q0EpoPKD0Hr-17" value="灯光及渲染" style="rounded=0;whiteSpace=wrap;html=1;" vertex="1" parent="1">
          <mxGeometry x="600" y="820" width="120" height="60" as="geometry" />
        </mxCell>
        <mxCell id="-Tqdvg291Q0EpoPKD0Hr-19" value="设计模式" style="rounded=0;whiteSpace=wrap;html=1;" vertex="1" parent="1">
          <mxGeometry x="540" y="180" width="120" height="60" as="geometry" />
        </mxCell>
        <mxCell id="-Tqdvg291Q0EpoPKD0Hr-20" value="网络编程" style="rounded=0;whiteSpace=wrap;html=1;" vertex="1" parent="1">
          <mxGeometry x="660" y="180" width="120" height="60" as="geometry" />
        </mxCell>
        <mxCell id="-Tqdvg291Q0EpoPKD0Hr-21" value="物理引擎" style="rounded=0;whiteSpace=wrap;html=1;" vertex="1" parent="1">
          <mxGeometry x="890" y="380" width="120" height="60" as="geometry" />
        </mxCell>
        <mxCell id="-Tqdvg291Q0EpoPKD0Hr-22" value="AI相关" style="rounded=0;whiteSpace=wrap;html=1;" vertex="1" parent="1">
          <mxGeometry x="890" y="460" width="120" height="60" as="geometry" />
        </mxCell>
        <mxCell id="-Tqdvg291Q0EpoPKD0Hr-24" value="多媒体" style="rounded=0;whiteSpace=wrap;html=1;" vertex="1" parent="1">
          <mxGeometry x="890" y="540" width="120" height="60" as="geometry" />
        </mxCell>
      </root>
    </mxGraphModel>
  </diagram>
</mxfile>
